<?xml version="1.0" encoding="UTF-8"?>
<!DOCTYPE svg PUBLIC "-//W3C//DTD SVG 1.1//EN" "http://www.w3.org/Graphics/SVG/1.1/DTD/svg11.dtd">
<!-- Creator: CorelDRAW 2019 (64-Bit) -->
<svg xmlns="http://www.w3.org/2000/svg" xml:space="preserve" width="317.5mm" height="176.389mm" version="1.1" style="shape-rendering:geometricPrecision; text-rendering:geometricPrecision; image-rendering:optimizeQuality; fill-rule:evenodd; clip-rule:evenodd"
viewBox="0 0 31750 17638.88"
 xmlns:xlink="http://www.w3.org/1999/xlink">
 <defs>
  <style type="text/css">
   <![CDATA[
    .fil1 {fill:#2B2A29}
    .fil0 {fill:white}
   ]]>
  </style>
 </defs>
 <g id="Слой_x0020_1">
  <metadata id="CorelCorpID_0Corel-Layer"/>
  <g id="_3020397435216">
   <polygon class="fil0" points="-0,17638.88 31750,17638.88 31750,0 -0,0 "/>
   <g>
    <path class="fil1" d="M11594.81 10036.39l-3455.91 0.43c-266.69,624.82 -445.55,1094.36 -858.95,1405.89 -482.09,363.29 -991.61,560.07 -1774.41,442.8 -1478.11,-221.42 -1454.88,-1696.32 -1195.49,-3095.4 238.18,-1284.69 773.6,-2461.95 1679.11,-2906.05 894.91,-438.9 2657.82,-362.71 2562,1603.66l3434.47 0c87.99,-1888.9 -474.6,-3079.8 -1614.87,-3783.13 -1150.7,-709.77 -2979.19,-919.54 -4508.26,-593.6 -2649.62,564.81 -4698.3,2809.53 -5172.16,5620.2 -621.99,3689.3 1156.46,5789.42 4671.88,5886.92 2292.64,63.59 4261.75,-992.51 5409.78,-2716.27 178.48,-267.98 843.06,-1486.2 822.81,-1865.45z"/>
    <path class="fil1" d="M23552.05 10036.39l-3455.98 0.32c-252.67,541.99 -324.34,966.11 -860.34,1403.05 -450.99,367.63 -1018.8,557.23 -1769.76,447.1 -1487.32,-218.13 -1457.38,-1689.63 -1202.03,-3100.09 235.85,-1302.73 769.07,-2426.82 1662.2,-2891.16 864.77,-449.6 2680.35,-389.16 2579.84,1580.27l3443.63 11.89c89.73,-1933.86 -484.47,-3029.16 -1620.48,-3782.02 -1094.82,-725.57 -3031.73,-899.51 -4509.05,-595.93 -2643.39,543.21 -4708.57,2829.13 -5174.66,5619.4 -616.82,3692.64 1156.09,5799 4675.97,5889.07 2306.37,59.01 4258.49,-991.79 5404.66,-2722.67 195.31,-294.95 832.73,-1452.73 826,-1859.23z"/>
    <polygon class="fil1" points="24448.53,14330.79 28081.11,14330.61 30025.4,3260.69 29986.11,3258.31 26405.42,3258.31 "/>
   </g>
  </g>
 </g>
</svg>
