<svg height="512pt" viewBox="0 -61 512 512" width="512pt" xmlns="http://www.w3.org/2000/svg"><path d="m497 241.210938h-9.328125v-14.019532c0-26.277344-10.742187-51.917968-29.46875-70.351562l-31.34375-30.847656v-37.742188c0-7.4375-5.417969-13.59375-12.519531-14.777344v-3.496094c0-38.585937-31.390625-69.976562-69.976563-69.976562h-180.96875c-1.210937 0-2.382812.160156-3.511719.429688-2.527343-.277344-5.085937-.429688-7.6875-.429688h-137.195312c-8.285156 0-15 6.714844-15 15v41.785156c0 8.285156 6.714844 15 15 15h135.382812v1.6875c-7.101562 1.183594-12.519531 7.339844-12.519531 14.777344v37.742188l-31.339843 30.847656c-18.730469 18.433594-29.46875 44.074218-29.46875 70.351562v14.019532h-62.054688c-8.285156 0-15 6.71875-15 15v118.316406c0 8.285156 6.714844 15 15 15h482c8.285156 0 15-6.714844 15-15v-118.316406c0-8.28125-6.714844-15-15-15zm-467 30h452v88.316406h-46.277344v-21.253906c0-8.285157-6.71875-15-15-15-8.285156 0-15 6.714843-15 15v21.253906h-375.722656zm314.367188-241.210938c22.039062 0 39.972656 17.933594 39.972656 39.976562v3.273438h-11.785156v-3.273438c0-15.542968-12.644532-28.191406-28.1875-28.191406h-128.148438c-1.835938-4.15625-4.066406-8.097656-6.640625-11.785156zm113.304687 211.210938h-158.445313v-14.019532c0-18.292968 7.476563-36.140625 20.511719-48.96875l35.820313-35.253906c2.863281-2.820312 4.476562-6.671875 4.476562-10.691406v-29.027344h36.824219v29.027344c0 4.019531 1.613281 7.871094 4.480469 10.691406l35.820312 35.253906c13.035156 12.828125 20.511719 30.675782 20.511719 48.96875zm-235.5-167.738282v-1.6875h120.382813v1.6875c-7.101563 1.183594-12.519532 7.339844-12.519532 14.777344v37.742188l-31.34375 30.847656c-6.417968 6.316406-11.898437 13.484375-16.328125 21.230468-4.433593-7.746093-9.914062-14.910156-16.332031-21.230468l-31.34375-30.847656v-37.742188c0-7.4375-5.417969-13.59375-12.515625-14.777344zm-192.171875-43.472656h122.195312c22.042969 0 39.976563 17.933594 39.976563 39.976562v3.273438h-11.789063v-3.273438c0-15.542968-12.644531-28.191406-28.1875-28.191406h-122.195312zm133.386719 112.96875c2.863281-2.820312 4.476562-6.671875 4.476562-10.691406v-29.027344h36.828125v29.027344c0 4.019531 1.613282 7.871094 4.476563 10.691406l35.820312 35.253906c13.035157 12.828125 20.511719 30.675782 20.511719 48.96875v14.019532h-158.445312v-14.019532c0-18.292968 7.476562-36.140625 20.511718-48.96875zm0 0"/><path d="m111.085938 330.371094c8.28125 0 15-6.714844 15-15s-6.71875-15-15-15h-38.445313c-8.285156 0-15 6.714844-15 15s6.714844 15 15 15zm0 0"/><path d="m141.136719 315.371094c0 8.285156 6.714843 15 15 15h38.445312c8.28125 0 15-6.714844 15-15s-6.71875-15-15-15h-38.445312c-8.285157 0-15 6.714844-15 15zm0 0"/><path d="m224.632812 315.371094c0 8.285156 6.714844 15 15 15h38.445313c8.28125 0 15-6.714844 15-15s-6.71875-15-15-15h-38.445313c-8.285156 0-15 6.714844-15 15zm0 0"/></svg>